<?xml version="1.0" encoding="utf-8"?>
<!-- Generator: Adobe Illustrator 28.0.0, SVG Export Plug-In . SVG Version: 6.00 Build 0)  -->
<svg version="1.1" id="Layer_1" xmlns="http://www.w3.org/2000/svg" xmlns:xlink="http://www.w3.org/1999/xlink" x="0px" y="0px"
	 viewBox="0 0 800 800" style="enable-background:new 0 0 800 800;" xml:space="preserve">
<style type="text/css">
	.st0{fill:#7C4641;}
	.st1{fill:#8E5A54;}
	.st2{fill:#F2A196;}
	.st3{fill:#E88870;}
	.st4{fill:#F2D4CF;}
	.st5{fill:none;stroke:#00214E;stroke-width:2.1838;stroke-miterlimit:21.8376;}
	.st6{fill:none;stroke:#F2D4CF;stroke-width:2.1838;stroke-miterlimit:21.8376;}
	.st7{fill:#00214E;}
	.st8{fill:#FFFFFF;}
</style>
<path class="st0" d="M391,139c2.1-12.7-5.3-29.3,1.4-40s24.9-11.4,35.3-18.9c10.1-7.2,16.4-24.3,29.2-27.3
	c12.8-3,26.1,9.5,38.3,11.6c12.7,2.1,29.2-5.3,40,1.4c10.8,6.7,11.4,24.8,18.9,35.3c7.2,10.1,24.3,16.4,27.3,29.2
	s-9.6,26.1-11.6,38.3c-2.1,12.7,5.3,29.3-1.4,40c-6.7,10.7-24.9,11.4-35.3,18.9c-10.1,7.2-16.4,24.3-29.3,27.3s-26.1-9.6-38.3-11.6
	c-12.7-2.1-29.2,5.3-40-1.4c-10.8-6.7-11.4-24.8-18.9-35.3c-7.2-10.1-24.3-16.4-27.3-29.2C376.3,164.5,389,151.2,391,139z"/>
<path class="st1" d="M333.1,462.5c-10.2-8-25.9-11.2-35.6-2.7c-7.5,6.7-8.8,18.1-6.7,28c2.1,9.9,6.8,19,9.4,28.7
	c7.9,29.7-10.9,66.1-41.3,70.1c12.3-8.6,18.5-24.2,17.7-39.1s-8.1-29-18-40.2c-7.3-8.3-16.4-15.7-20.5-25.9
	c-10.7-26.2,14.8-53.2,17-81.4c2-26.2-16.4-49.5-21.1-75.4c-9.1-51,28.4-114.7,69.9-143.1c111.5-76.1,310.4-8.7,279.2,146.4
	c-6.8,33.8-22.5,65.4-41.3,94.3c-15.3,23.5-33.1,46.1-56.8,61c-32.1,20.5-96.9,42.9-126.7,8.7c-5.6-6.4-10.4-13.6-15.9-20.2
	C339.7,468.3,336.6,465.2,333.1,462.5z"/>
<path class="st2" d="M286.2,609.8l19.7-8l25-10.2l1-34.7l0.5-16.4l1.6-53.4l68-11.6l66.1-11.2l11.4-5.9l3.9-2l0.4-0.2
	c-0.1,6.9-0.1,13.9-0.2,20.8c-0.1,12.5-0.8,25-0.8,37.5c0.1,18.6,3,36.8,11.7,53.2c7.6,14.4,18.6,26.7,32,36
	c0.9,0.6,1.8,1.1,2.6,1.7s1.6,1,2.4,1.6c3.1,1.9,6.2,3.6,9.5,5.1l106.3,49.8c-145,113.7-348.6,114.6-494.6,2.2L286.2,609.8z"/>
<path class="st3" d="M333.9,487l68-11.6l66.1-11.2l11.4-5.9l3.9-2v6.1c-0.1,2.3-0.1,4.6-0.1,6.9c-39.7,46.8-102.7,72.2-135,75.6
	c-5.6,0.3-11.1-1.3-15.8-4.4L333.9,487z"/>
<path class="st4" d="M286.2,609.9l19.7-7.9c6.5,18,22.3,32.1,39.9,40c62.1,27.8,134,3.1,185.8-34.9c3.1,1.9,6.2,3.6,9.5,5.1
	l106.3,49.8c-145,113.7-348.6,114.6-494.6,2.2L286.2,609.9z"/>
<circle class="st2" cx="538.3" cy="386.3" r="37.1"/>
<circle class="st3" cx="525.2" cy="382" r="37.1"/>
<path class="st2" d="M455,204.6c67.7,19.5,101.9,107.3,76.2,196.2c-25.6,88.9-137,125.5-182.8,125.5c-33.5,0-88-107.3-62.3-196.2
	C311.7,241.3,387.3,185.1,455,204.6z"/>
<path class="st1" d="M361.8,215.1c-4.1-16.2,2.7-41.1,3.9-58c0,0,126.3,50.2,126.7,50.2c21.6,5.3,40.2,29.6,54,45.6
	c16.5,19.1,39.2,42.2,33.5,69.9c-3.9,18.9-36.2,48.2-53.9,26.5c-7.7-9.5-7.5-25.1-18.3-30.9c-7.3-3.9-16.4-1.1-23.5,3.1
	s-13.6,9.9-21.5,12.2c-11.6,3.3-24.4-1.4-33.4-9.4c-9-8-15-18.8-20.4-29.7c-7.2-14.6-13.6-29.6-22.1-43.5
	c-6.5-10.6-17.4-19.6-22.6-29.9C363.1,219.1,362.3,217.1,361.8,215.1z"/>
<path class="st5" d="M366,404.8H358c-1.3,0-2.5-0.2-3.7-0.6c-6-2.1-9.1-8.7-7-14.6c7.4-20.6,19.6-54.8,19.5-55.3"/>
<path class="st6" d="M291.8,307.2c16.6-4.8,34.5-3.1,49.9,4.7"/>
<path class="st6" d="M393.9,317.8c21.9-9.5,46.9-8.7,68.2,2.2"/>
<path class="st7" d="M423,344.2c13.3,0.1,13.3,20.5,0,20.6h-0.6c-13.3-0.1-13.3-20.6,0-20.6H423z"/>
<path class="st7" d="M313.2,337.5c12.4,0.1,12.4,19.1,0,19.1h-0.6c-12.4-0.1-12.4-19,0-19.1H313.2z"/>
<path class="st5" d="M381.7,404.7c0.4,0.1,0.7,0.1,1.1,0.1c3.2,0.1,5.9-2.4,6-5.6c-0.2-3.6-3-6.5-6.6-6.9"/>
<path class="st8" d="M421.3,427.2c0,6.4-11.6,24.3-27.1,27.2c-11.5,1.8-23.2-1.1-32.5-8.1c-4.4-3.7-6.7-6.5-4.8-8.8
	c3.3-4.1,17.3,2.3,33.3-0.9c11.8-2.3,20.1-9.1,24.6-12.3c0.1-0.1,0.2-0.1,0.2-0.2c1.9-1.2,4.4-0.6,5.6,1.3
	C421.1,425.9,421.3,426.5,421.3,427.2z"/>
</svg>
