<?xml version="1.0" encoding="utf-8"?>
<!-- Generator: Adobe Illustrator 28.0.0, SVG Export Plug-In . SVG Version: 6.00 Build 0)  -->
<svg version="1.1" id="Layer_1" xmlns="http://www.w3.org/2000/svg" xmlns:xlink="http://www.w3.org/1999/xlink" x="0px" y="0px"
	 viewBox="0 0 102.05 87.87" style="enable-background:new 0 0 102.05 87.87;" xml:space="preserve">
<style type="text/css">
	.st0{fill:#F2A196;}
	.st1{fill:#8E5A54;}
	.st2{fill:#AA5F5F;}
	.st3{fill:#C68383;}
	.st4{fill:#F3D3A7;}
	.st5{fill:#FFFFFF;}
	.st6{fill:#9F6464;}
	.st7{fill:#B4DBED;}
	.st8{fill:#5EB3D1;}
</style>
<polygon class="st0" points="34.57,63.51 34.57,71.5 32.23,71.39 31.11,62.33 34.57,57.14 "/>
<path class="st0" d="M35.87,59.03c0.36-0.28,1.25-0.3,3.85,1.57c0.09,0.76,0.25,1.92,0.55,3.3c0.54,2.5,1.2,4.22,1.57,5.27
	c0.43,1.22,0.81,2.47,1.13,3.73c0.39,1.54,0.7,2.95,1.89,4.1c0.58,0.56,1.52,0.9,2.24,1.25c0.85,0.41,1.72,0.79,2.64,0.99
	c-1.52,0.84-3.44,0.9-5.01,0.16c-0.57-0.27-1.16-0.64-1.77-0.49c-0.64,0.16-1.16,0.89-1.8,0.72c0.29-0.87,0.44-1.78,0.46-2.7
	c-0.45-1.04-0.9-2.08-1.36-3.13c-0.69-1.11-1.61-2.78-2.36-4.95c-0.14-0.41-0.28-0.83-0.71-2.44C35.4,59.71,35.63,59.22,35.87,59.03
	z"/>
<path class="st0" d="M13.22,79.97c0.76,0.1,1.51,0.09,2.27,0.03c0.64-0.05,1.28-0.12,1.92-0.19c1.74-0.19,3.43-0.06,5.19,0
	c3.75,0.11,7.51,0.05,11.26-0.17c1.45-0.09,2.99-0.23,4.16-1.1c1.3-0.98,1.86-2.78,1.48-4.36c0-1.51-1.89-3.18-3.3-3.29
	c-1.99-0.15-3.89-0.4-5.87-0.77c-0.79-0.15-1.59-0.29-2.38-0.22c-0.8,0.07-1.61,0.39-2.11,1.01c-0.74,0.93-0.54,2.46,0.43,3.15
	c0.66,0.48,1.53,0.55,2.35,0.6c1.85,0.11,3.71,0.23,5.57,0.34c-3.78,0.24-7.56,0.47-11.34,0.71c-0.64,0.04-1.33,0.06-1.84-0.32
	c-0.23-0.17-0.39-0.4-0.54-0.63c-0.25-0.38-0.46-0.79-0.85-1.01c-1.64-0.96-2.02,1.23-2.51,2.24c-0.72,1.49-2.91,2.4-4.39,2.9
	C11.39,79.35,12.41,79.86,13.22,79.97z"/>
<path class="st0" d="M29.76,41.75c-0.02-0.45,0.02-0.9,0.11-1.32c0.7-3.35,4.8-6.19,8.09-4.53c0.13,0.07,0.26,0.14,0.39,0.22
	c1.04,0.66,1.91,1.7,2.43,2.82c0.49,1.05,0.54,2.12,1.33,3.06c0.23,0.28,0.75,0.58,0.71,1.01c-0.02,0.32-0.41,0.4-0.57,0.65
	c-0.55,0.9,0.12,2.4-0.53,3.24c-0.72,0.93-1.98,0.45-2.96,0.66c-0.96,0.2-1.47,0.92-1.81,1.78c-0.3,0.76-0.45,1.3-1.21,1.73
	c-0.48,0.27-2.37,1.04-2.87,0.54c-0.58-0.58,0.35-2.64,0.47-3.34c0.24-1.32-0.41-2.61-1.46-3.45c-0.61-0.49-1.29-0.74-1.69-1.46
	C29.92,42.89,29.79,42.32,29.76,41.75z"/>
<path class="st1" d="M38.9,38.3c-0.17,0.04-0.35,0.08-0.52,0.12c1.17,0,2.32-0.62,2.98-1.61c0.66-1,0.83-2.34,0.44-3.52
	c-0.39,0.54-0.77,1.07-1.16,1.6c0.23-0.4,0.47-0.8,0.7-1.21c-1.02,0.86-2.37,1.29-3.7,1.19c0.75-0.23,1.5-0.46,2.25-0.69
	c-1.62-0.28-3.26-0.56-4.88-0.43c-1.62,0.13-3.25,0.73-4.35,1.96c-0.53,0.6-0.9,1.32-1.11,2.09c-0.18,0.68-0.06,1.34-0.59,1.83
	c-0.57,0.53-0.92,0.42-1.07,1.35c-0.13,0.77,0,1.59,0.26,2.32c0.23,0.64,0.59,1.23,1,1.77c0.33,0.42,1.02,0.66,1.28,1.02
	c-0.22-0.31-0.44-0.61-0.66-0.92c0.44,0.62,0.87,1.24,1.3,1.86c0.06-0.21,0.12-0.42,0.18-0.63c0.45,0.57,0.05,1.43,0.5,2
	c-0.03-0.28,0.79-0.86,0.76-1.14c0.13,0.16-0.57,0.63-0.44,0.79c0-0.23,0.85-0.76,0.86-0.98c0.72,0.13,0.47,1.16,0.47,1.92
	c0.54-1.07,1.44-2.71,1-3.87c0.22,0.31,0.44,0.62,0.65,0.93c0-0.5,0.01-1,0.01-1.49c0.06,0.19,0.11,0.37,0.17,0.55
	c-0.04-0.13,0.32-0.55,0.4-0.65c0.1,0.4,0.18,0.82,0.29,1.23c1.49-2.61-0.81-5.48,2.63-6.54c-0.64-0.17-1.29-0.27-1.93-0.43
	C37.38,38.56,38.15,38.45,38.9,38.3z"/>
<g>
	<g>
		<g>
			<path class="st2" d="M40.7,40.13c-0.58,0.22-1.04,0.6-1.27,1.18c-0.06,0.14-0.27,0.03-0.21-0.11c0.26-0.63,0.78-1.06,1.41-1.29
				C40.78,39.85,40.85,40.08,40.7,40.13L40.7,40.13z"/>
		</g>
		<g>
			<path class="st2" d="M42.05,44.88c-0.47,0.26-0.89,0.18-1.32-0.12c-0.13-0.09-0.01-0.3,0.12-0.21c0.35,0.24,0.69,0.35,1.08,0.13
				C42.06,44.6,42.19,44.81,42.05,44.88L42.05,44.88z"/>
		</g>
	</g>
	<path class="st2" d="M40.27,41.59c0.06,0.29,0.24,0.5,0.4,0.46c0.15-0.03,0.23-0.3,0.16-0.59c-0.07-0.29-0.24-0.5-0.4-0.47
		C40.28,41.03,40.2,41.3,40.27,41.59z"/>
</g>
<path class="st3" d="M19.79,66.27c0.16-0.15,1.53-1.32,2.51-2.17c0.57-0.5,1.02-0.89,1.02-0.89c0,0,0.51,0.77,1.04,1.58l6.36,2.13
	v2.01c2.64,0.4,5.36,0.82,5.39,0.83c-0.39-0.08-1.18,2.52-1.26,2.81c-0.07,0.26-0.52,3.12-0.67,3.12c0,0-9.25-0.11-9.27-0.11
	c-2.87,0-5.25-0.62-6.42-3.75C17.72,69.8,18.25,67.67,19.79,66.27z"/>
<path class="st4" d="M21.28,61.98c1.43-3.2,3.05-5.99,5.08-8.82c1.7-2.36,4.34-5.1,7.55-4.66c1.25,0.17,2.54,0.73,3.45,1.62
	c0.53,0.52,0.96,1.15,1.26,1.83c1.21,2.73,2.46,8.47,2.6,9.08c-1.77,0.39-3.54,0.78-5.31,1.18c-0.27-1.1-0.55-2.2-0.83-3.3
	c-1.46,2.67-2.91,5.35-4.37,8.02c-3.77-0.12-7.55-0.24-11.32-0.36C19.8,65.49,20.43,63.88,21.28,61.98z"/>
<g>
	<path class="st5" d="M35.07,58.84c-0.22-1.37-0.65-2.67-1.17-3.95c-0.08-0.19,0.23-0.27,0.31-0.08c0.52,1.28,0.95,2.58,1.17,3.94
		C35.41,58.95,35.1,59.04,35.07,58.84L35.07,58.84z"/>
</g>
<path class="st3" d="M26.24,67.77c0.74-1.66,1.47-3.45,2.17-5.35c0.51-1.4,0.97-2.77,1.37-4.08c0,0,0.85-2.81,2.99-5.98
	c0.78-1.15,1.39-1.75,2.36-2.05c1.26-0.39,2.43,0.09,2.91,0.32c-0.14-0.25-0.4-0.61-0.83-0.87c-0.92-0.55-1.97-0.22-2.44-0.08
	c-0.62,0.19-1.04,0.49-1.3,0.67c-0.86,0.61-1.33,1.33-1.53,1.65c-1.99,3.14-2.67,5.23-2.67,5.23c-0.88,2.7-2.21,6.21-4.01,10.73
	C25.58,67.9,25.91,67.83,26.24,67.77z"/>
<path class="st6" d="M13.22,79.97c0.76,0.1,1.51,0.09,2.27,0.03c0.82-1.28,1.79-2.46,2.89-3.52c0.71-0.68,1.56-1.12,2.08-1.72
	c-0.25-0.38-0.46-0.79-0.85-1.01c-1.64-0.96-2.02,1.23-2.51,2.24c-0.72,1.49-2.91,2.4-4.39,2.9C11.39,79.35,12.41,79.86,13.22,79.97
	z"/>
<g>
	<g>
		<path class="st7" d="M85.63,23.79l-4.12-1.05l-0.1,0.4l-31.86-8.47c0,0,0.21-1.13,2.24-0.77c2.04,0.36-0.04,0-0.04,0l16.41,1.95
			l16.93,6.86C85.09,22.7,85.94,22.99,85.63,23.79z"/>
		<path class="st8" d="M67.57,18.79c0,0-18.02-4.12-18.02-4.12s3.44,1.35,5.65,3.8c0,0,1.19,4.32,7.53,6.86
			c0,0.01,4.18,1.67,7.28,1.63c5.87,0.28,8.58-2.52,8.58-2.52c3.12-1.1,7.02-0.65,7.02-0.65L67.57,18.79z"/>
	</g>
	<path class="st8" d="M70.62,17.11l0.24-0.93c0.06-0.25-0.09-0.5-0.33-0.56l-4.11-1.05c-0.24-0.06-0.49,0.08-0.56,0.33l-0.24,0.93
		L70.62,17.11z"/>
	<g>
		<path class="st7" d="M58.79,12.12c-0.08,0.32-3.95-0.4-8.64-1.59c-4.69-1.2-8.43-2.42-8.35-2.74c0.08-0.32,3.95,0.4,8.64,1.59
			C55.13,10.57,58.87,11.8,58.79,12.12z"/>
		<g>
			<path class="st8" d="M49.76,17.24c-0.12,0.49-0.63,0.79-1.11,0.66l-1.18-0.3c-0.49-0.12-0.79-0.63-0.66-1.11l1.25-4.88
				c0.12-0.49,0.63-0.79,1.11-0.66l1.18,0.3c0.49,0.12,0.79,0.63,0.66,1.11L49.76,17.24z"/>
			
				<rect x="47.79" y="10.2" transform="matrix(0.2465 -0.9691 0.9691 0.2465 27.6066 56.1906)" class="st8" width="4.3" height="0.29"/>
		</g>
		<path class="st7" d="M49.73,7.46c0.11-0.45,0.57-0.72,1.02-0.61c0.45,0.11,0.72,0.57,0.61,1.02c-0.11,0.45-0.57,0.72-1.02,0.61
			C49.89,8.37,49.62,7.91,49.73,7.46z"/>
	</g>
	<g>
		<path class="st7" d="M95.97,21.6c-0.08,0.32-3.95-0.4-8.64-1.59c-4.69-1.2-8.43-2.42-8.35-2.74c0.08-0.32,3.95,0.4,8.64,1.59
			C92.32,20.05,96.05,21.28,95.97,21.6z"/>
		<g>
			<path class="st8" d="M86.94,26.72c-0.12,0.49-0.63,0.79-1.11,0.66l-1.18-0.3c-0.49-0.12-0.79-0.63-0.66-1.11l1.25-4.88
				c0.12-0.49,0.63-0.79,1.12-0.66l1.18,0.3c0.49,0.12,0.79,0.63,0.66,1.11L86.94,26.72z"/>
			
				<rect x="84.98" y="19.68" transform="matrix(0.2465 -0.9692 0.9692 0.2465 46.4405 99.3753)" class="st8" width="4.3" height="0.29"/>
		</g>
		<path class="st7" d="M86.91,16.94c0.11-0.45,0.57-0.72,1.02-0.61c0.45,0.11,0.72,0.57,0.61,1.02c-0.11,0.45-0.57,0.72-1.02,0.61
			C87.07,17.85,86.8,17.39,86.91,16.94z"/>
	</g>
	
		<rect x="67.75" y="14.15" transform="matrix(0.2465 -0.9691 0.9691 0.2465 37.5872 77.497)" class="st8" width="1.78" height="0.86"/>
	<path class="st8" d="M67.65,12.76c0.18-0.7,0.9-1.13,1.6-0.95c0.7,0.18,1.13,0.9,0.95,1.6c-0.18,0.71-0.9,1.13-1.6,0.95
		S67.47,13.46,67.65,12.76z"/>
</g>
<g>
	<path class="st8" d="M55.82,19.73c0,0-6.28,0.53-7.65,7.74l1,0.41c0,0,1.2-7.18,8.7-5.66l1.59-2.83L55.82,19.73z"/>
	<path class="st8" d="M49.1,28.55c-0.06,0.24-0.31,0.39-0.56,0.33l-1.29-0.33c-0.25-0.06-0.39-0.31-0.33-0.56l0.1-0.41
		c0.06-0.24,0.31-0.39,0.56-0.33l1.29,0.33c0.24,0.06,0.39,0.31,0.33,0.56L49.1,28.55z"/>
</g>
<g>
	<path class="st8" d="M77.02,25.14c0,0,5.26,3.47,3.01,10.46l-1.07-0.12c0,0,2.39-6.88-4.92-9.14l-0.04-3.24L77.02,25.14z"/>
	<path class="st8" d="M78.69,36.1c-0.06,0.24,0.09,0.5,0.33,0.56l1.29,0.33c0.24,0.06,0.5-0.09,0.56-0.33l0.1-0.41
		c0.06-0.24-0.09-0.5-0.33-0.56l-1.29-0.33c-0.24-0.06-0.49,0.09-0.56,0.33L78.69,36.1z"/>
</g>
<path class="st8" d="M67.7,32.18c-0.06,0.24-0.31,0.39-0.56,0.33l-5.7-1.45c-0.24-0.06-0.39-0.31-0.33-0.56l0.92-3.63
	c0.06-0.24,0.31-0.39,0.56-0.33l5.7,1.45c0.24,0.06,0.39,0.31,0.33,0.56L67.7,32.18z"/>
<rect x="64.36" y="26.48" transform="matrix(0.247 -0.969 0.969 0.247 23.3138 83.7746)" class="st8" width="2.41" height="0.8"/>
<path class="st7" d="M63.59,29.12c0.19-0.76,0.96-1.21,1.72-1.02c0.76,0.19,1.21,0.96,1.02,1.72c-0.19,0.76-0.96,1.21-1.72,1.02
	C63.86,30.65,63.4,29.88,63.59,29.12z"/>
<path class="st8" d="M64.78,30.17c-0.39-0.1-0.62-0.49-0.52-0.88c0.1-0.39,0.49-0.62,0.88-0.52c0.39,0.1,0.62,0.49,0.53,0.88
	C65.57,30.04,65.17,30.27,64.78,30.17z"/>
</svg>
